# xmcd
#
# Track frame offsets: 
#        150
#        14063
#        22984
#        41285
#        52792
#        64572
#        78793
#        89270
#        101771
#        111102
#        127050
#        141921
#
# Disc length: 2188 seconds
#
# Revision: 0
# Processed by: cddbd v1.5.2PL0 Copyright (c) Steve Scherf et al.
# Submitted via: ExactAudioCopy v1.0b3
#
DISCID=93088a0c
DTITLE=The Pimps - The Sound of One Heart Breaking
DYEAR=2006
DGENRE=Country
TTITLE0=The Church By The Side Of The Road
TTITLE1=My Mamma Didn't Drink No Alcohol
TTITLE2=When He Met Her
TTITLE3=Nogales
TTITLE4=080605
TTITLE5=I Sleep Like A Baby At Night
TTITLE6=But I'm Hangin' In There
TTITLE7=Good Evening
TTITLE8=The Hangover
TTITLE9=Every Word
TTITLE10=I've Been Dyin' My Whole Life
TTITLE11=The Winding, Straight and Narrow - Dark Eyes
EXTD=
EXTT0=
EXTT1=
EXTT2=
EXTT3=
EXTT4=
EXTT5=
EXTT6=
EXTT7=
EXTT8=
EXTT9=
EXTT10=
EXTT11=
PLAYORDER=
